<mxfile host="app.diagrams.net" agent="Mozilla/5.0 (Windows NT 10.0; Win64; x64) AppleWebKit/537.36 (KHTML, like Gecko) Chrome/134.0.0.0 Safari/537.36" version="26.1.1">
  <diagram id="C5RBs43oDa-KdzZeNtuy" name="Page-1">
    <mxGraphModel dx="1372" dy="820" grid="1" gridSize="10" guides="1" tooltips="1" connect="1" arrows="1" fold="1" page="1" pageScale="1" pageWidth="827" pageHeight="1169" math="0" shadow="0">
      <root>
        <mxCell id="WIyWlLk6GJQsqaUBKTNV-0" />
        <mxCell id="WIyWlLk6GJQsqaUBKTNV-1" parent="WIyWlLk6GJQsqaUBKTNV-0" />
        <mxCell id="_QNUhopDg3Hf3t6jgUZH-50" style="edgeStyle=orthogonalEdgeStyle;rounded=0;orthogonalLoop=1;jettySize=auto;html=1;entryX=0.5;entryY=0;entryDx=0;entryDy=0;" parent="WIyWlLk6GJQsqaUBKTNV-1" source="_QNUhopDg3Hf3t6jgUZH-4" target="_QNUhopDg3Hf3t6jgUZH-6" edge="1">
          <mxGeometry relative="1" as="geometry" />
        </mxCell>
        <mxCell id="c0zV2AM7hL4q2DCEaIti-16" value="&lt;font style=&quot;font-size: 12px;&quot;&gt;Solicita informacion al cliente&lt;/font&gt;" style="edgeLabel;html=1;align=center;verticalAlign=middle;resizable=0;points=[];shadow=1;fontFamily=Helvetica;fontSize=11;fontColor=default;labelBackgroundColor=default;fillColor=none;gradientColor=none;" parent="_QNUhopDg3Hf3t6jgUZH-50" vertex="1" connectable="0">
          <mxGeometry x="0.6027" y="4" relative="1" as="geometry">
            <mxPoint x="4" y="-22" as="offset" />
          </mxGeometry>
        </mxCell>
        <mxCell id="_QNUhopDg3Hf3t6jgUZH-4" value="Operador" style="rounded=0;whiteSpace=wrap;html=1;" parent="WIyWlLk6GJQsqaUBKTNV-1" vertex="1">
          <mxGeometry x="337" y="40" width="120" height="40" as="geometry" />
        </mxCell>
        <mxCell id="SMtAYWXJvcv_vjCOF7HQ-4" value="" style="edgeStyle=orthogonalEdgeStyle;rounded=0;orthogonalLoop=1;jettySize=auto;html=1;entryX=1;entryY=0.5;entryDx=0;entryDy=0;" parent="WIyWlLk6GJQsqaUBKTNV-1" source="_QNUhopDg3Hf3t6jgUZH-6" target="zwyI8tlbRfQAhwyagGd9-0" edge="1">
          <mxGeometry relative="1" as="geometry">
            <mxPoint x="340" y="221" as="targetPoint" />
          </mxGeometry>
        </mxCell>
        <mxCell id="_QNUhopDg3Hf3t6jgUZH-6" value="RIF,&lt;div&gt;Descripcion&lt;/div&gt;&lt;div&gt;Falla,&lt;/div&gt;&lt;div&gt;Region&lt;/div&gt;" style="shape=parallelogram;perimeter=parallelogramPerimeter;whiteSpace=wrap;html=1;fixedSize=1;" parent="WIyWlLk6GJQsqaUBKTNV-1" vertex="1">
          <mxGeometry x="337" y="203.5" width="120" height="60" as="geometry" />
        </mxCell>
        <mxCell id="_QNUhopDg3Hf3t6jgUZH-15" value="" style="edgeStyle=none;curved=1;rounded=0;orthogonalLoop=1;jettySize=auto;html=1;fontSize=12;startSize=8;endSize=8;" parent="WIyWlLk6GJQsqaUBKTNV-1" source="_QNUhopDg3Hf3t6jgUZH-19" target="_QNUhopDg3Hf3t6jgUZH-24" edge="1">
          <mxGeometry relative="1" as="geometry" />
        </mxCell>
        <mxCell id="_QNUhopDg3Hf3t6jgUZH-16" value="SI" style="edgeLabel;html=1;align=center;verticalAlign=middle;resizable=0;points=[];fontSize=12;" parent="_QNUhopDg3Hf3t6jgUZH-15" vertex="1" connectable="0">
          <mxGeometry x="-0.1667" y="2" relative="1" as="geometry">
            <mxPoint y="2" as="offset" />
          </mxGeometry>
        </mxCell>
        <mxCell id="zwyI8tlbRfQAhwyagGd9-32" style="edgeStyle=orthogonalEdgeStyle;rounded=0;orthogonalLoop=1;jettySize=auto;html=1;exitX=0.5;exitY=1;exitDx=0;exitDy=0;entryX=0;entryY=0.5;entryDx=0;entryDy=0;" parent="WIyWlLk6GJQsqaUBKTNV-1" source="_QNUhopDg3Hf3t6jgUZH-19" target="_QNUhopDg3Hf3t6jgUZH-38" edge="1">
          <mxGeometry relative="1" as="geometry" />
        </mxCell>
        <mxCell id="zwyI8tlbRfQAhwyagGd9-145" value="NO" style="edgeLabel;html=1;align=center;verticalAlign=middle;resizable=0;points=[];" parent="zwyI8tlbRfQAhwyagGd9-32" vertex="1" connectable="0">
          <mxGeometry x="0.439" y="-2" relative="1" as="geometry">
            <mxPoint as="offset" />
          </mxGeometry>
        </mxCell>
        <mxCell id="_QNUhopDg3Hf3t6jgUZH-19" value="El POS tiene garantia?" style="rhombus;whiteSpace=wrap;html=1;" parent="WIyWlLk6GJQsqaUBKTNV-1" vertex="1">
          <mxGeometry x="136" y="301" width="96" height="90" as="geometry" />
        </mxCell>
        <mxCell id="_QNUhopDg3Hf3t6jgUZH-85" style="edgeStyle=orthogonalEdgeStyle;rounded=0;orthogonalLoop=1;jettySize=auto;html=1;exitX=0.5;exitY=0;exitDx=0;exitDy=0;" parent="WIyWlLk6GJQsqaUBKTNV-1" source="_QNUhopDg3Hf3t6jgUZH-24" target="_QNUhopDg3Hf3t6jgUZH-45" edge="1">
          <mxGeometry relative="1" as="geometry">
            <mxPoint x="525" y="271" as="targetPoint" />
          </mxGeometry>
        </mxCell>
        <mxCell id="_QNUhopDg3Hf3t6jgUZH-86" value="SI" style="edgeLabel;html=1;align=center;verticalAlign=middle;resizable=0;points=[];" parent="_QNUhopDg3Hf3t6jgUZH-85" vertex="1" connectable="0">
          <mxGeometry x="0.1738" relative="1" as="geometry">
            <mxPoint as="offset" />
          </mxGeometry>
        </mxCell>
        <mxCell id="_QNUhopDg3Hf3t6jgUZH-88" value="" style="edgeStyle=orthogonalEdgeStyle;rounded=0;orthogonalLoop=1;jettySize=auto;html=1;entryX=0;entryY=0.5;entryDx=0;entryDy=0;" parent="WIyWlLk6GJQsqaUBKTNV-1" source="_QNUhopDg3Hf3t6jgUZH-24" target="_QNUhopDg3Hf3t6jgUZH-89" edge="1">
          <mxGeometry relative="1" as="geometry">
            <mxPoint x="525" y="346" as="targetPoint" />
          </mxGeometry>
        </mxCell>
        <mxCell id="_QNUhopDg3Hf3t6jgUZH-90" value="NO" style="edgeLabel;html=1;align=center;verticalAlign=middle;resizable=0;points=[];" parent="_QNUhopDg3Hf3t6jgUZH-88" vertex="1" connectable="0">
          <mxGeometry x="0.1565" y="2" relative="1" as="geometry">
            <mxPoint x="-1" y="2" as="offset" />
          </mxGeometry>
        </mxCell>
        <mxCell id="_QNUhopDg3Hf3t6jgUZH-24" value="Por reingreso?" style="rhombus;whiteSpace=wrap;html=1;" parent="WIyWlLk6GJQsqaUBKTNV-1" vertex="1">
          <mxGeometry x="349" y="301" width="96" height="90" as="geometry" />
        </mxCell>
        <mxCell id="zwyI8tlbRfQAhwyagGd9-190" style="edgeStyle=orthogonalEdgeStyle;rounded=0;orthogonalLoop=1;jettySize=auto;html=1;exitX=1;exitY=0.5;exitDx=0;exitDy=0;entryX=0;entryY=0.5;entryDx=0;entryDy=0;" parent="WIyWlLk6GJQsqaUBKTNV-1" source="_QNUhopDg3Hf3t6jgUZH-31" target="zwyI8tlbRfQAhwyagGd9-214" edge="1">
          <mxGeometry relative="1" as="geometry">
            <mxPoint x="575" y="647.25" as="targetPoint" />
          </mxGeometry>
        </mxCell>
        <mxCell id="_QNUhopDg3Hf3t6jgUZH-31" value="Verificar Nota Profit del abono" style="rounded=0;whiteSpace=wrap;html=1;" parent="WIyWlLk6GJQsqaUBKTNV-1" vertex="1">
          <mxGeometry x="415" y="627.25" width="120" height="40" as="geometry" />
        </mxCell>
        <mxCell id="_QNUhopDg3Hf3t6jgUZH-32" value="" style="edgeStyle=none;curved=1;rounded=0;orthogonalLoop=1;jettySize=auto;html=1;fontSize=12;startSize=8;endSize=8;" parent="WIyWlLk6GJQsqaUBKTNV-1" source="_QNUhopDg3Hf3t6jgUZH-33" target="_QNUhopDg3Hf3t6jgUZH-41" edge="1">
          <mxGeometry relative="1" as="geometry" />
        </mxCell>
        <mxCell id="_QNUhopDg3Hf3t6jgUZH-33" value="Se le informa al cliente del pago del anticipo?" style="rounded=0;whiteSpace=wrap;html=1;" parent="WIyWlLk6GJQsqaUBKTNV-1" vertex="1">
          <mxGeometry x="227" y="531" width="158" height="50" as="geometry" />
        </mxCell>
        <mxCell id="zwyI8tlbRfQAhwyagGd9-217" style="edgeStyle=orthogonalEdgeStyle;rounded=0;orthogonalLoop=1;jettySize=auto;html=1;exitX=1;exitY=0.75;exitDx=0;exitDy=0;entryX=0;entryY=0;entryDx=0;entryDy=0;" parent="WIyWlLk6GJQsqaUBKTNV-1" source="_QNUhopDg3Hf3t6jgUZH-34" target="zwyI8tlbRfQAhwyagGd9-214" edge="1">
          <mxGeometry relative="1" as="geometry" />
        </mxCell>
        <mxCell id="_QNUhopDg3Hf3t6jgUZH-34" value="Cargue PDF de exoneracion" style="rounded=0;whiteSpace=wrap;html=1;" parent="WIyWlLk6GJQsqaUBKTNV-1" vertex="1">
          <mxGeometry x="445" y="431" width="120" height="40" as="geometry" />
        </mxCell>
        <mxCell id="_QNUhopDg3Hf3t6jgUZH-35" value="" style="edgeStyle=none;curved=1;rounded=0;orthogonalLoop=1;jettySize=auto;html=1;fontSize=12;startSize=8;endSize=8;" parent="WIyWlLk6GJQsqaUBKTNV-1" source="_QNUhopDg3Hf3t6jgUZH-38" target="_QNUhopDg3Hf3t6jgUZH-34" edge="1">
          <mxGeometry relative="1" as="geometry" />
        </mxCell>
        <mxCell id="_QNUhopDg3Hf3t6jgUZH-36" value="SI" style="edgeLabel;html=1;align=center;verticalAlign=middle;resizable=0;points=[];fontSize=12;" parent="_QNUhopDg3Hf3t6jgUZH-35" vertex="1" connectable="0">
          <mxGeometry x="-0.2195" y="-2" relative="1" as="geometry">
            <mxPoint as="offset" />
          </mxGeometry>
        </mxCell>
        <mxCell id="_QNUhopDg3Hf3t6jgUZH-37" style="edgeStyle=none;curved=1;rounded=0;orthogonalLoop=1;jettySize=auto;html=1;exitX=0.5;exitY=1;exitDx=0;exitDy=0;fontSize=12;startSize=8;endSize=8;" parent="WIyWlLk6GJQsqaUBKTNV-1" source="_QNUhopDg3Hf3t6jgUZH-38" target="_QNUhopDg3Hf3t6jgUZH-33" edge="1">
          <mxGeometry relative="1" as="geometry" />
        </mxCell>
        <mxCell id="HQB4Sq_2YrO74d-TBcbG-32" value="NO" style="edgeLabel;html=1;align=center;verticalAlign=middle;resizable=0;points=[];" parent="_QNUhopDg3Hf3t6jgUZH-37" vertex="1" connectable="0">
          <mxGeometry x="-0.2952" relative="1" as="geometry">
            <mxPoint y="1" as="offset" />
          </mxGeometry>
        </mxCell>
        <mxCell id="_QNUhopDg3Hf3t6jgUZH-38" value="El POS esta exonerado?" style="rhombus;whiteSpace=wrap;html=1;" parent="WIyWlLk6GJQsqaUBKTNV-1" vertex="1">
          <mxGeometry x="261" y="411" width="86" height="80" as="geometry" />
        </mxCell>
        <mxCell id="_QNUhopDg3Hf3t6jgUZH-69" value="" style="edgeStyle=orthogonalEdgeStyle;rounded=0;orthogonalLoop=1;jettySize=auto;html=1;" parent="WIyWlLk6GJQsqaUBKTNV-1" source="_QNUhopDg3Hf3t6jgUZH-41" target="_QNUhopDg3Hf3t6jgUZH-68" edge="1">
          <mxGeometry relative="1" as="geometry" />
        </mxCell>
        <mxCell id="_QNUhopDg3Hf3t6jgUZH-73" value="NO" style="edgeLabel;html=1;align=center;verticalAlign=middle;resizable=0;points=[];" parent="_QNUhopDg3Hf3t6jgUZH-69" vertex="1" connectable="0">
          <mxGeometry x="-0.4603" y="-4" relative="1" as="geometry">
            <mxPoint x="4" y="-2" as="offset" />
          </mxGeometry>
        </mxCell>
        <mxCell id="zwyI8tlbRfQAhwyagGd9-189" style="edgeStyle=orthogonalEdgeStyle;rounded=0;orthogonalLoop=1;jettySize=auto;html=1;exitX=1;exitY=0.5;exitDx=0;exitDy=0;entryX=0;entryY=0.5;entryDx=0;entryDy=0;" parent="WIyWlLk6GJQsqaUBKTNV-1" source="_QNUhopDg3Hf3t6jgUZH-41" target="_QNUhopDg3Hf3t6jgUZH-31" edge="1">
          <mxGeometry relative="1" as="geometry" />
        </mxCell>
        <mxCell id="zwyI8tlbRfQAhwyagGd9-191" value="SI" style="edgeLabel;html=1;align=center;verticalAlign=middle;resizable=0;points=[];" parent="zwyI8tlbRfQAhwyagGd9-189" vertex="1" connectable="0">
          <mxGeometry x="-0.2619" y="-4" relative="1" as="geometry">
            <mxPoint as="offset" />
          </mxGeometry>
        </mxCell>
        <mxCell id="_QNUhopDg3Hf3t6jgUZH-41" value="Cliente Realizo pago del anticipo?" style="rhombus;whiteSpace=wrap;html=1;rounded=0;" parent="WIyWlLk6GJQsqaUBKTNV-1" vertex="1">
          <mxGeometry x="261" y="606" width="86" height="80" as="geometry" />
        </mxCell>
        <mxCell id="zwyI8tlbRfQAhwyagGd9-220" style="edgeStyle=orthogonalEdgeStyle;rounded=0;orthogonalLoop=1;jettySize=auto;html=1;exitX=1;exitY=0.5;exitDx=0;exitDy=0;entryX=1;entryY=0;entryDx=0;entryDy=0;" parent="WIyWlLk6GJQsqaUBKTNV-1" source="_QNUhopDg3Hf3t6jgUZH-45" target="zwyI8tlbRfQAhwyagGd9-214" edge="1">
          <mxGeometry relative="1" as="geometry">
            <Array as="points">
              <mxPoint x="695" y="271" />
              <mxPoint x="695" y="626" />
            </Array>
          </mxGeometry>
        </mxCell>
        <mxCell id="_QNUhopDg3Hf3t6jgUZH-45" value="Aplica garantia por reingreso" style="rounded=0;whiteSpace=wrap;html=1;" parent="WIyWlLk6GJQsqaUBKTNV-1" vertex="1">
          <mxGeometry x="555" y="251" width="120" height="40" as="geometry" />
        </mxCell>
        <mxCell id="_QNUhopDg3Hf3t6jgUZH-101" style="edgeStyle=orthogonalEdgeStyle;rounded=0;orthogonalLoop=1;jettySize=auto;html=1;exitX=1;exitY=0.5;exitDx=0;exitDy=0;entryX=0.5;entryY=1;entryDx=0;entryDy=0;" parent="WIyWlLk6GJQsqaUBKTNV-1" source="_QNUhopDg3Hf3t6jgUZH-61" target="_QNUhopDg3Hf3t6jgUZH-100" edge="1">
          <mxGeometry relative="1" as="geometry" />
        </mxCell>
        <mxCell id="_QNUhopDg3Hf3t6jgUZH-61" value="Pendiente por Gestion Comercial" style="rounded=1;whiteSpace=wrap;html=1;fontSize=12;glass=0;strokeWidth=1;shadow=0;" parent="WIyWlLk6GJQsqaUBKTNV-1" vertex="1">
          <mxGeometry x="435" y="811" width="120" height="40" as="geometry" />
        </mxCell>
        <mxCell id="_QNUhopDg3Hf3t6jgUZH-71" value="" style="edgeStyle=orthogonalEdgeStyle;rounded=0;orthogonalLoop=1;jettySize=auto;html=1;" parent="WIyWlLk6GJQsqaUBKTNV-1" source="_QNUhopDg3Hf3t6jgUZH-68" target="_QNUhopDg3Hf3t6jgUZH-70" edge="1">
          <mxGeometry relative="1" as="geometry" />
        </mxCell>
        <mxCell id="_QNUhopDg3Hf3t6jgUZH-68" value="En espera. Tiene un tiempo estimado de 72Hrs" style="rounded=0;whiteSpace=wrap;html=1;" parent="WIyWlLk6GJQsqaUBKTNV-1" vertex="1">
          <mxGeometry x="244" y="731" width="120" height="50" as="geometry" />
        </mxCell>
        <mxCell id="_QNUhopDg3Hf3t6jgUZH-74" style="edgeStyle=orthogonalEdgeStyle;rounded=0;orthogonalLoop=1;jettySize=auto;html=1;exitX=1;exitY=0.5;exitDx=0;exitDy=0;" parent="WIyWlLk6GJQsqaUBKTNV-1" source="_QNUhopDg3Hf3t6jgUZH-70" edge="1">
          <mxGeometry relative="1" as="geometry">
            <mxPoint x="495.00000000000045" y="668.5" as="targetPoint" />
            <Array as="points">
              <mxPoint x="344" y="791" />
              <mxPoint x="495" y="791" />
            </Array>
          </mxGeometry>
        </mxCell>
        <mxCell id="_QNUhopDg3Hf3t6jgUZH-76" value="SI" style="edgeLabel;html=1;align=center;verticalAlign=middle;resizable=0;points=[];" parent="_QNUhopDg3Hf3t6jgUZH-74" vertex="1" connectable="0">
          <mxGeometry x="-0.8327" y="-3" relative="1" as="geometry">
            <mxPoint x="-7" y="-3" as="offset" />
          </mxGeometry>
        </mxCell>
        <mxCell id="_QNUhopDg3Hf3t6jgUZH-77" style="edgeStyle=orthogonalEdgeStyle;rounded=0;orthogonalLoop=1;jettySize=auto;html=1;exitX=0.5;exitY=1;exitDx=0;exitDy=0;entryX=0.5;entryY=1;entryDx=0;entryDy=0;" parent="WIyWlLk6GJQsqaUBKTNV-1" source="_QNUhopDg3Hf3t6jgUZH-70" target="_QNUhopDg3Hf3t6jgUZH-61" edge="1">
          <mxGeometry relative="1" as="geometry" />
        </mxCell>
        <mxCell id="_QNUhopDg3Hf3t6jgUZH-78" value="NO" style="edgeLabel;html=1;align=center;verticalAlign=middle;resizable=0;points=[];" parent="_QNUhopDg3Hf3t6jgUZH-77" vertex="1" connectable="0">
          <mxGeometry x="-0.1091" y="3" relative="1" as="geometry">
            <mxPoint x="90" y="-27" as="offset" />
          </mxGeometry>
        </mxCell>
        <mxCell id="_QNUhopDg3Hf3t6jgUZH-70" value="Cliente Realizo pago del anticipo?" style="rhombus;whiteSpace=wrap;html=1;rounded=0;" parent="WIyWlLk6GJQsqaUBKTNV-1" vertex="1">
          <mxGeometry x="264" y="811" width="80" height="80" as="geometry" />
        </mxCell>
        <mxCell id="_QNUhopDg3Hf3t6jgUZH-72" style="edgeStyle=orthogonalEdgeStyle;rounded=0;orthogonalLoop=1;jettySize=auto;html=1;exitX=0.5;exitY=1;exitDx=0;exitDy=0;" parent="WIyWlLk6GJQsqaUBKTNV-1" source="_QNUhopDg3Hf3t6jgUZH-68" target="_QNUhopDg3Hf3t6jgUZH-68" edge="1">
          <mxGeometry relative="1" as="geometry" />
        </mxCell>
        <mxCell id="zwyI8tlbRfQAhwyagGd9-218" style="edgeStyle=orthogonalEdgeStyle;rounded=0;orthogonalLoop=1;jettySize=auto;html=1;exitX=0.75;exitY=1;exitDx=0;exitDy=0;" parent="WIyWlLk6GJQsqaUBKTNV-1" source="_QNUhopDg3Hf3t6jgUZH-89" target="zwyI8tlbRfQAhwyagGd9-214" edge="1">
          <mxGeometry relative="1" as="geometry">
            <Array as="points">
              <mxPoint x="638" y="366" />
            </Array>
          </mxGeometry>
        </mxCell>
        <mxCell id="_QNUhopDg3Hf3t6jgUZH-89" value="Aplica garantia de instalacion" style="rounded=0;whiteSpace=wrap;html=1;" parent="WIyWlLk6GJQsqaUBKTNV-1" vertex="1">
          <mxGeometry x="545" y="326" width="120" height="40" as="geometry" />
        </mxCell>
        <mxCell id="_QNUhopDg3Hf3t6jgUZH-100" value="&lt;font style=&quot;font-size: 24px;&quot;&gt;Cerrar Ticket&lt;/font&gt;" style="rounded=1;whiteSpace=wrap;html=1;fontSize=12;glass=0;strokeWidth=1;shadow=0;strokeColor=none;" parent="WIyWlLk6GJQsqaUBKTNV-1" vertex="1">
          <mxGeometry x="535" y="710" width="175" height="71" as="geometry" />
        </mxCell>
        <mxCell id="zwyI8tlbRfQAhwyagGd9-37" value="" style="edgeStyle=orthogonalEdgeStyle;rounded=0;orthogonalLoop=1;jettySize=auto;html=1;exitX=0.5;exitY=1;exitDx=0;exitDy=0;" parent="WIyWlLk6GJQsqaUBKTNV-1" source="_QNUhopDg3Hf3t6jgUZH-119" target="zwyI8tlbRfQAhwyagGd9-41" edge="1">
          <mxGeometry relative="1" as="geometry">
            <mxPoint x="892.5" y="931" as="sourcePoint" />
            <mxPoint x="892.5714285714289" y="770.9196428571424" as="targetPoint" />
          </mxGeometry>
        </mxCell>
        <mxCell id="zwyI8tlbRfQAhwyagGd9-92" value="SI" style="edgeLabel;html=1;align=center;verticalAlign=middle;resizable=0;points=[];" parent="zwyI8tlbRfQAhwyagGd9-37" vertex="1" connectable="0">
          <mxGeometry x="-0.3619" y="-3" relative="1" as="geometry">
            <mxPoint y="1" as="offset" />
          </mxGeometry>
        </mxCell>
        <mxCell id="zwyI8tlbRfQAhwyagGd9-90" style="edgeStyle=orthogonalEdgeStyle;rounded=0;orthogonalLoop=1;jettySize=auto;html=1;exitX=1;exitY=0.5;exitDx=0;exitDy=0;entryX=1;entryY=0.5;entryDx=0;entryDy=0;" parent="WIyWlLk6GJQsqaUBKTNV-1" source="_QNUhopDg3Hf3t6jgUZH-119" target="zwyI8tlbRfQAhwyagGd9-44" edge="1">
          <mxGeometry relative="1" as="geometry" />
        </mxCell>
        <mxCell id="zwyI8tlbRfQAhwyagGd9-91" value="NO" style="edgeLabel;html=1;align=center;verticalAlign=middle;resizable=0;points=[];" parent="zwyI8tlbRfQAhwyagGd9-90" vertex="1" connectable="0">
          <mxGeometry x="0.6936" y="-1" relative="1" as="geometry">
            <mxPoint x="-19" y="-210" as="offset" />
          </mxGeometry>
        </mxCell>
        <mxCell id="_QNUhopDg3Hf3t6jgUZH-119" value="El cliente es regional?" style="rhombus;whiteSpace=wrap;html=1;" parent="WIyWlLk6GJQsqaUBKTNV-1" vertex="1">
          <mxGeometry x="725" y="671" width="80" height="90" as="geometry" />
        </mxCell>
        <mxCell id="_QNUhopDg3Hf3t6jgUZH-124" value="&lt;font style=&quot;font-size: 24px;&quot;&gt;Cerrar Ticket&lt;/font&gt;" style="rounded=1;whiteSpace=wrap;html=1;fontSize=12;glass=0;strokeWidth=1;shadow=0;strokeColor=none;" parent="WIyWlLk6GJQsqaUBKTNV-1" vertex="1">
          <mxGeometry x="570" y="1170" width="185" height="71" as="geometry" />
        </mxCell>
        <mxCell id="zwyI8tlbRfQAhwyagGd9-57" style="edgeStyle=orthogonalEdgeStyle;rounded=0;orthogonalLoop=1;jettySize=auto;html=1;exitX=0.5;exitY=0;exitDx=0;exitDy=0;entryX=0;entryY=0.5;entryDx=0;entryDy=0;" parent="WIyWlLk6GJQsqaUBKTNV-1" source="_QNUhopDg3Hf3t6jgUZH-133" target="HQB4Sq_2YrO74d-TBcbG-1" edge="1">
          <mxGeometry relative="1" as="geometry" />
        </mxCell>
        <mxCell id="zwyI8tlbRfQAhwyagGd9-58" value="NO" style="edgeLabel;html=1;align=center;verticalAlign=middle;resizable=0;points=[];" parent="zwyI8tlbRfQAhwyagGd9-57" vertex="1" connectable="0">
          <mxGeometry x="-0.0354" y="1" relative="1" as="geometry">
            <mxPoint as="offset" />
          </mxGeometry>
        </mxCell>
        <mxCell id="zwyI8tlbRfQAhwyagGd9-93" style="edgeStyle=orthogonalEdgeStyle;rounded=0;orthogonalLoop=1;jettySize=auto;html=1;exitX=1;exitY=0.5;exitDx=0;exitDy=0;" parent="WIyWlLk6GJQsqaUBKTNV-1" source="_QNUhopDg3Hf3t6jgUZH-133" target="_QNUhopDg3Hf3t6jgUZH-138" edge="1">
          <mxGeometry relative="1" as="geometry" />
        </mxCell>
        <mxCell id="zwyI8tlbRfQAhwyagGd9-146" value="SI" style="edgeLabel;html=1;align=center;verticalAlign=middle;resizable=0;points=[];" parent="zwyI8tlbRfQAhwyagGd9-93" vertex="1" connectable="0">
          <mxGeometry x="-0.5777" y="3" relative="1" as="geometry">
            <mxPoint y="1" as="offset" />
          </mxGeometry>
        </mxCell>
        <mxCell id="_QNUhopDg3Hf3t6jgUZH-133" value="El equipo llego&amp;nbsp; con algun componente?" style="rhombus;whiteSpace=wrap;html=1;direction=south;" parent="WIyWlLk6GJQsqaUBKTNV-1" vertex="1">
          <mxGeometry x="837.5" y="1004.13" width="125" height="130" as="geometry" />
        </mxCell>
        <mxCell id="zwyI8tlbRfQAhwyagGd9-76" style="edgeStyle=orthogonalEdgeStyle;rounded=0;orthogonalLoop=1;jettySize=auto;html=1;exitX=1;exitY=0.5;exitDx=0;exitDy=0;entryX=0.5;entryY=1;entryDx=0;entryDy=0;" parent="WIyWlLk6GJQsqaUBKTNV-1" source="_QNUhopDg3Hf3t6jgUZH-138" target="HQB4Sq_2YrO74d-TBcbG-1" edge="1">
          <mxGeometry relative="1" as="geometry" />
        </mxCell>
        <mxCell id="_QNUhopDg3Hf3t6jgUZH-138" value="Verificar lista de componentes" style="rounded=0;whiteSpace=wrap;html=1;" parent="WIyWlLk6GJQsqaUBKTNV-1" vertex="1">
          <mxGeometry x="837.5" y="1216" width="120" height="40" as="geometry" />
        </mxCell>
        <mxCell id="HQB4Sq_2YrO74d-TBcbG-4" value="" style="edgeStyle=orthogonalEdgeStyle;rounded=0;orthogonalLoop=1;jettySize=auto;html=1;" parent="WIyWlLk6GJQsqaUBKTNV-1" source="HQB4Sq_2YrO74d-TBcbG-1" target="HQB4Sq_2YrO74d-TBcbG-3" edge="1">
          <mxGeometry relative="1" as="geometry" />
        </mxCell>
        <mxCell id="HQB4Sq_2YrO74d-TBcbG-1" value="Verificar falla por parte del equipo del rosal" style="rounded=0;whiteSpace=wrap;html=1;" parent="WIyWlLk6GJQsqaUBKTNV-1" vertex="1">
          <mxGeometry x="1005" y="1161" width="120" height="55" as="geometry" />
        </mxCell>
        <mxCell id="HQB4Sq_2YrO74d-TBcbG-8" value="" style="edgeStyle=orthogonalEdgeStyle;rounded=0;orthogonalLoop=1;jettySize=auto;html=1;" parent="WIyWlLk6GJQsqaUBKTNV-1" source="HQB4Sq_2YrO74d-TBcbG-3" target="HQB4Sq_2YrO74d-TBcbG-7" edge="1">
          <mxGeometry relative="1" as="geometry" />
        </mxCell>
        <mxCell id="HQB4Sq_2YrO74d-TBcbG-9" value="Text" style="edgeLabel;html=1;align=center;verticalAlign=middle;resizable=0;points=[];" parent="HQB4Sq_2YrO74d-TBcbG-8" vertex="1" connectable="0">
          <mxGeometry x="-0.2686" y="-1" relative="1" as="geometry">
            <mxPoint as="offset" />
          </mxGeometry>
        </mxCell>
        <mxCell id="HQB4Sq_2YrO74d-TBcbG-11" value="NO" style="edgeLabel;html=1;align=center;verticalAlign=middle;resizable=0;points=[];" parent="HQB4Sq_2YrO74d-TBcbG-8" vertex="1" connectable="0">
          <mxGeometry x="-0.2114" y="2" relative="1" as="geometry">
            <mxPoint as="offset" />
          </mxGeometry>
        </mxCell>
        <mxCell id="zwyI8tlbRfQAhwyagGd9-69" style="edgeStyle=orthogonalEdgeStyle;rounded=0;orthogonalLoop=1;jettySize=auto;html=1;exitX=1;exitY=1;exitDx=0;exitDy=0;entryX=0;entryY=0.5;entryDx=0;entryDy=0;" parent="WIyWlLk6GJQsqaUBKTNV-1" source="HQB4Sq_2YrO74d-TBcbG-3" target="HQB4Sq_2YrO74d-TBcbG-5" edge="1">
          <mxGeometry relative="1" as="geometry" />
        </mxCell>
        <mxCell id="zwyI8tlbRfQAhwyagGd9-163" value="SI" style="edgeLabel;html=1;align=center;verticalAlign=middle;resizable=0;points=[];" parent="zwyI8tlbRfQAhwyagGd9-69" vertex="1" connectable="0">
          <mxGeometry x="0.7696" y="-1" relative="1" as="geometry">
            <mxPoint as="offset" />
          </mxGeometry>
        </mxCell>
        <mxCell id="HQB4Sq_2YrO74d-TBcbG-3" value="el dispositivo Tiene la falla descrita por el cliente?" style="rhombus;whiteSpace=wrap;html=1;rounded=0;" parent="WIyWlLk6GJQsqaUBKTNV-1" vertex="1">
          <mxGeometry x="995" y="841" width="120" height="100" as="geometry" />
        </mxCell>
        <mxCell id="HQB4Sq_2YrO74d-TBcbG-36" value="" style="edgeStyle=orthogonalEdgeStyle;rounded=0;orthogonalLoop=1;jettySize=auto;html=1;" parent="WIyWlLk6GJQsqaUBKTNV-1" source="HQB4Sq_2YrO74d-TBcbG-5" target="HQB4Sq_2YrO74d-TBcbG-35" edge="1">
          <mxGeometry relative="1" as="geometry" />
        </mxCell>
        <mxCell id="HQB4Sq_2YrO74d-TBcbG-5" value="Enviar a Taller/lab de boleita" style="whiteSpace=wrap;html=1;rounded=0;" parent="WIyWlLk6GJQsqaUBKTNV-1" vertex="1">
          <mxGeometry x="1155" y="1109.13" width="120" height="40" as="geometry" />
        </mxCell>
        <mxCell id="HQB4Sq_2YrO74d-TBcbG-14" value="" style="edgeStyle=orthogonalEdgeStyle;rounded=0;orthogonalLoop=1;jettySize=auto;html=1;entryX=0.5;entryY=1;entryDx=0;entryDy=0;" parent="WIyWlLk6GJQsqaUBKTNV-1" source="HQB4Sq_2YrO74d-TBcbG-7" target="zwyI8tlbRfQAhwyagGd9-148" edge="1">
          <mxGeometry relative="1" as="geometry">
            <mxPoint x="1250.0000000000005" y="751" as="targetPoint" />
          </mxGeometry>
        </mxCell>
        <mxCell id="HQB4Sq_2YrO74d-TBcbG-17" value="NO" style="edgeLabel;html=1;align=center;verticalAlign=middle;resizable=0;points=[];" parent="HQB4Sq_2YrO74d-TBcbG-14" vertex="1" connectable="0">
          <mxGeometry x="-0.2327" y="-1" relative="1" as="geometry">
            <mxPoint x="-60" y="-34" as="offset" />
          </mxGeometry>
        </mxCell>
        <mxCell id="HQB4Sq_2YrO74d-TBcbG-16" value="" style="edgeStyle=orthogonalEdgeStyle;rounded=0;orthogonalLoop=1;jettySize=auto;html=1;exitX=1;exitY=0.5;exitDx=0;exitDy=0;" parent="WIyWlLk6GJQsqaUBKTNV-1" target="rR9O2mA9o4_ctk0LI53O-9" edge="1">
          <mxGeometry relative="1" as="geometry">
            <mxPoint x="1310" y="1060" as="targetPoint" />
            <mxPoint x="1241" y="1019" as="sourcePoint" />
          </mxGeometry>
        </mxCell>
        <mxCell id="HQB4Sq_2YrO74d-TBcbG-29" value="SI" style="edgeLabel;html=1;align=center;verticalAlign=middle;resizable=0;points=[];" parent="HQB4Sq_2YrO74d-TBcbG-16" vertex="1" connectable="0">
          <mxGeometry x="-0.2343" y="4" relative="1" as="geometry">
            <mxPoint x="-4" y="1" as="offset" />
          </mxGeometry>
        </mxCell>
        <mxCell id="rR9O2mA9o4_ctk0LI53O-2" value="" style="edgeStyle=orthogonalEdgeStyle;rounded=0;orthogonalLoop=1;jettySize=auto;html=1;" parent="WIyWlLk6GJQsqaUBKTNV-1" source="HQB4Sq_2YrO74d-TBcbG-7" target="rR9O2mA9o4_ctk0LI53O-1" edge="1">
          <mxGeometry relative="1" as="geometry" />
        </mxCell>
        <mxCell id="rR9O2mA9o4_ctk0LI53O-3" value="SI" style="edgeLabel;html=1;align=center;verticalAlign=middle;resizable=0;points=[];" parent="rR9O2mA9o4_ctk0LI53O-2" vertex="1" connectable="0">
          <mxGeometry x="0.0344" y="-2" relative="1" as="geometry">
            <mxPoint x="1" as="offset" />
          </mxGeometry>
        </mxCell>
        <mxCell id="HQB4Sq_2YrO74d-TBcbG-7" value="El dispositivo tiene otra falla?" style="rhombus;whiteSpace=wrap;html=1;rounded=0;" parent="WIyWlLk6GJQsqaUBKTNV-1" vertex="1">
          <mxGeometry x="1165" y="851" width="100" height="80" as="geometry" />
        </mxCell>
        <mxCell id="HQB4Sq_2YrO74d-TBcbG-21" value="" style="edgeStyle=orthogonalEdgeStyle;rounded=0;orthogonalLoop=1;jettySize=auto;html=1;" parent="WIyWlLk6GJQsqaUBKTNV-1" source="HQB4Sq_2YrO74d-TBcbG-18" target="c0zV2AM7hL4q2DCEaIti-6" edge="1">
          <mxGeometry relative="1" as="geometry">
            <mxPoint x="1255" y="261" as="targetPoint" />
          </mxGeometry>
        </mxCell>
        <mxCell id="HQB4Sq_2YrO74d-TBcbG-18" value="Entregar a Cliente" style="whiteSpace=wrap;html=1;" parent="WIyWlLk6GJQsqaUBKTNV-1" vertex="1">
          <mxGeometry x="1100" y="256" width="120" height="50" as="geometry" />
        </mxCell>
        <mxCell id="zwyI8tlbRfQAhwyagGd9-95" value="" style="edgeStyle=orthogonalEdgeStyle;rounded=0;orthogonalLoop=1;jettySize=auto;html=1;" parent="WIyWlLk6GJQsqaUBKTNV-1" source="HQB4Sq_2YrO74d-TBcbG-35" target="HQB4Sq_2YrO74d-TBcbG-37" edge="1">
          <mxGeometry relative="1" as="geometry" />
        </mxCell>
        <mxCell id="HQB4Sq_2YrO74d-TBcbG-35" value="Verificar falla por parte del equipo del rosal" style="whiteSpace=wrap;html=1;rounded=0;" parent="WIyWlLk6GJQsqaUBKTNV-1" vertex="1">
          <mxGeometry x="1150" y="1290" width="130" height="40" as="geometry" />
        </mxCell>
        <mxCell id="HQB4Sq_2YrO74d-TBcbG-40" value="" style="edgeStyle=orthogonalEdgeStyle;rounded=0;orthogonalLoop=1;jettySize=auto;html=1;" parent="WIyWlLk6GJQsqaUBKTNV-1" source="HQB4Sq_2YrO74d-TBcbG-37" target="HQB4Sq_2YrO74d-TBcbG-39" edge="1">
          <mxGeometry relative="1" as="geometry" />
        </mxCell>
        <mxCell id="HQB4Sq_2YrO74d-TBcbG-43" value="NO" style="edgeLabel;html=1;align=center;verticalAlign=middle;resizable=0;points=[];" parent="HQB4Sq_2YrO74d-TBcbG-40" vertex="1" connectable="0">
          <mxGeometry x="0.2" y="3" relative="1" as="geometry">
            <mxPoint as="offset" />
          </mxGeometry>
        </mxCell>
        <mxCell id="zwyI8tlbRfQAhwyagGd9-199" style="edgeStyle=orthogonalEdgeStyle;rounded=0;orthogonalLoop=1;jettySize=auto;html=1;exitX=0;exitY=0.5;exitDx=0;exitDy=0;entryX=1;entryY=0.5;entryDx=0;entryDy=0;" parent="WIyWlLk6GJQsqaUBKTNV-1" source="HQB4Sq_2YrO74d-TBcbG-37" target="zwyI8tlbRfQAhwyagGd9-198" edge="1">
          <mxGeometry relative="1" as="geometry" />
        </mxCell>
        <mxCell id="zwyI8tlbRfQAhwyagGd9-200" value="SI" style="edgeLabel;html=1;align=center;verticalAlign=middle;resizable=0;points=[];" parent="zwyI8tlbRfQAhwyagGd9-199" vertex="1" connectable="0">
          <mxGeometry x="0.1888" relative="1" as="geometry">
            <mxPoint x="4" y="-5" as="offset" />
          </mxGeometry>
        </mxCell>
        <mxCell id="HQB4Sq_2YrO74d-TBcbG-37" value="Tiene solucion?" style="rhombus;whiteSpace=wrap;html=1;" parent="WIyWlLk6GJQsqaUBKTNV-1" vertex="1">
          <mxGeometry x="977.5" y="1270" width="80" height="80" as="geometry" />
        </mxCell>
        <mxCell id="SMtAYWXJvcv_vjCOF7HQ-17" style="edgeStyle=orthogonalEdgeStyle;rounded=0;orthogonalLoop=1;jettySize=auto;html=1;exitX=0.5;exitY=1;exitDx=0;exitDy=0;entryX=0.5;entryY=0;entryDx=0;entryDy=0;" parent="WIyWlLk6GJQsqaUBKTNV-1" source="HQB4Sq_2YrO74d-TBcbG-39" target="HQB4Sq_2YrO74d-TBcbG-72" edge="1">
          <mxGeometry relative="1" as="geometry" />
        </mxCell>
        <mxCell id="HQB4Sq_2YrO74d-TBcbG-39" value="Pendiente por sustitucion de equipo" style="rounded=1;whiteSpace=wrap;html=1;" parent="WIyWlLk6GJQsqaUBKTNV-1" vertex="1">
          <mxGeometry x="1005" y="1411" width="120" height="60" as="geometry" />
        </mxCell>
        <mxCell id="zwyI8tlbRfQAhwyagGd9-100" value="" style="edgeStyle=orthogonalEdgeStyle;rounded=0;orthogonalLoop=1;jettySize=auto;html=1;" parent="WIyWlLk6GJQsqaUBKTNV-1" source="HQB4Sq_2YrO74d-TBcbG-44" target="HQB4Sq_2YrO74d-TBcbG-50" edge="1">
          <mxGeometry relative="1" as="geometry" />
        </mxCell>
        <mxCell id="HQB4Sq_2YrO74d-TBcbG-44" value="Arreglar falla del equipo" style="whiteSpace=wrap;html=1;" parent="WIyWlLk6GJQsqaUBKTNV-1" vertex="1">
          <mxGeometry x="805" y="1401" width="120" height="47.5" as="geometry" />
        </mxCell>
        <mxCell id="zwyI8tlbRfQAhwyagGd9-195" style="edgeStyle=orthogonalEdgeStyle;rounded=0;orthogonalLoop=1;jettySize=auto;html=1;exitX=0;exitY=0;exitDx=0;exitDy=0;entryX=1;entryY=0.5;entryDx=0;entryDy=0;" parent="WIyWlLk6GJQsqaUBKTNV-1" source="HQB4Sq_2YrO74d-TBcbG-50" target="HQB4Sq_2YrO74d-TBcbG-54" edge="1">
          <mxGeometry relative="1" as="geometry" />
        </mxCell>
        <mxCell id="zwyI8tlbRfQAhwyagGd9-227" value="NO" style="edgeLabel;html=1;align=center;verticalAlign=middle;resizable=0;points=[];" parent="zwyI8tlbRfQAhwyagGd9-195" vertex="1" connectable="0">
          <mxGeometry x="-0.4954" y="2" relative="1" as="geometry">
            <mxPoint x="1" as="offset" />
          </mxGeometry>
        </mxCell>
        <mxCell id="c0zV2AM7hL4q2DCEaIti-20" style="edgeStyle=orthogonalEdgeStyle;rounded=0;orthogonalLoop=1;jettySize=auto;html=1;exitX=0.5;exitY=1;exitDx=0;exitDy=0;entryX=1;entryY=0.5;entryDx=0;entryDy=0;fontFamily=Helvetica;fontSize=11;fontColor=default;labelBackgroundColor=default;resizable=0;" parent="WIyWlLk6GJQsqaUBKTNV-1" source="HQB4Sq_2YrO74d-TBcbG-50" target="HQB4Sq_2YrO74d-TBcbG-51" edge="1">
          <mxGeometry relative="1" as="geometry" />
        </mxCell>
        <mxCell id="c0zV2AM7hL4q2DCEaIti-21" value="SI" style="edgeLabel;html=1;align=center;verticalAlign=middle;resizable=0;points=[];shadow=1;fontFamily=Helvetica;fontSize=11;fontColor=default;labelBackgroundColor=default;fillColor=none;gradientColor=none;" parent="c0zV2AM7hL4q2DCEaIti-20" vertex="1" connectable="0">
          <mxGeometry x="-0.1169" y="2" relative="1" as="geometry">
            <mxPoint as="offset" />
          </mxGeometry>
        </mxCell>
        <mxCell id="HQB4Sq_2YrO74d-TBcbG-50" value="El equipo es platco, ingenico O banesco?" style="rhombus;whiteSpace=wrap;html=1;" parent="WIyWlLk6GJQsqaUBKTNV-1" vertex="1">
          <mxGeometry x="795" y="1481" width="140" height="140" as="geometry" />
        </mxCell>
        <mxCell id="c0zV2AM7hL4q2DCEaIti-22" style="edgeStyle=orthogonalEdgeStyle;rounded=0;orthogonalLoop=1;jettySize=auto;html=1;exitX=0.5;exitY=0;exitDx=0;exitDy=0;entryX=0.5;entryY=1;entryDx=0;entryDy=0;fontFamily=Helvetica;fontSize=11;fontColor=default;labelBackgroundColor=default;resizable=0;" parent="WIyWlLk6GJQsqaUBKTNV-1" source="HQB4Sq_2YrO74d-TBcbG-51" target="HQB4Sq_2YrO74d-TBcbG-59" edge="1">
          <mxGeometry relative="1" as="geometry" />
        </mxCell>
        <mxCell id="HQB4Sq_2YrO74d-TBcbG-51" value="Carga llave en oficinas correspondiente" style="whiteSpace=wrap;html=1;" parent="WIyWlLk6GJQsqaUBKTNV-1" vertex="1">
          <mxGeometry x="562.5" y="1600" width="125" height="40" as="geometry" />
        </mxCell>
        <mxCell id="zwyI8tlbRfQAhwyagGd9-130" style="edgeStyle=orthogonalEdgeStyle;rounded=0;orthogonalLoop=1;jettySize=auto;html=1;exitX=0.5;exitY=1;exitDx=0;exitDy=0;entryX=0.5;entryY=0;entryDx=0;entryDy=0;" parent="WIyWlLk6GJQsqaUBKTNV-1" source="HQB4Sq_2YrO74d-TBcbG-54" target="HQB4Sq_2YrO74d-TBcbG-59" edge="1">
          <mxGeometry relative="1" as="geometry" />
        </mxCell>
        <mxCell id="HQB4Sq_2YrO74d-TBcbG-54" value="Cargar llaves remoto" style="whiteSpace=wrap;html=1;" parent="WIyWlLk6GJQsqaUBKTNV-1" vertex="1">
          <mxGeometry x="635" y="1371" width="120" height="50" as="geometry" />
        </mxCell>
        <mxCell id="zwyI8tlbRfQAhwyagGd9-168" value="" style="edgeStyle=orthogonalEdgeStyle;rounded=0;orthogonalLoop=1;jettySize=auto;html=1;" parent="WIyWlLk6GJQsqaUBKTNV-1" source="HQB4Sq_2YrO74d-TBcbG-59" target="zwyI8tlbRfQAhwyagGd9-167" edge="1">
          <mxGeometry relative="1" as="geometry" />
        </mxCell>
        <mxCell id="HQB4Sq_2YrO74d-TBcbG-59" value="Enviar equipo devuelta al rosal&amp;nbsp;" style="whiteSpace=wrap;html=1;" parent="WIyWlLk6GJQsqaUBKTNV-1" vertex="1">
          <mxGeometry x="565" y="1511.16" width="120" height="39.38" as="geometry" />
        </mxCell>
        <mxCell id="c0zV2AM7hL4q2DCEaIti-3" style="edgeStyle=orthogonalEdgeStyle;rounded=0;orthogonalLoop=1;jettySize=auto;html=1;exitX=0.5;exitY=0;exitDx=0;exitDy=0;entryX=0.5;entryY=1;entryDx=0;entryDy=0;" parent="WIyWlLk6GJQsqaUBKTNV-1" source="HQB4Sq_2YrO74d-TBcbG-68" target="c0zV2AM7hL4q2DCEaIti-0" edge="1">
          <mxGeometry relative="1" as="geometry" />
        </mxCell>
        <mxCell id="HQB4Sq_2YrO74d-TBcbG-68" value="Verificar recepcion del equipo al estado procedente" style="whiteSpace=wrap;html=1;rounded=0;" parent="WIyWlLk6GJQsqaUBKTNV-1" vertex="1">
          <mxGeometry x="1100" y="451" width="120" height="45" as="geometry" />
        </mxCell>
        <mxCell id="HQB4Sq_2YrO74d-TBcbG-72" value="&lt;font style=&quot;font-size: 24px;&quot;&gt;Cerrar Ticket&lt;/font&gt;" style="rounded=1;whiteSpace=wrap;html=1;strokeColor=none;" parent="WIyWlLk6GJQsqaUBKTNV-1" vertex="1">
          <mxGeometry x="966.88" y="1530.54" width="196.25" height="90.46" as="geometry" />
        </mxCell>
        <mxCell id="zwyI8tlbRfQAhwyagGd9-213" style="edgeStyle=orthogonalEdgeStyle;rounded=0;orthogonalLoop=1;jettySize=auto;html=1;exitX=0.5;exitY=1;exitDx=0;exitDy=0;" parent="WIyWlLk6GJQsqaUBKTNV-1" source="zwyI8tlbRfQAhwyagGd9-0" target="_QNUhopDg3Hf3t6jgUZH-19" edge="1">
          <mxGeometry relative="1" as="geometry" />
        </mxCell>
        <mxCell id="zwyI8tlbRfQAhwyagGd9-0" value="Segundo Nivel" style="rounded=0;whiteSpace=wrap;html=1;" parent="WIyWlLk6GJQsqaUBKTNV-1" vertex="1">
          <mxGeometry x="136" y="211" width="100" height="45" as="geometry" />
        </mxCell>
        <mxCell id="zwyI8tlbRfQAhwyagGd9-12" value="&lt;h1 style=&quot;margin-top: 0px;&quot;&gt;Sistema de Gestion De Tickets De Soporte Post-Venta&lt;/h1&gt;&lt;div&gt;&lt;font style=&quot;font-size: 18px;&quot;&gt;Segundo Nivel&lt;/font&gt;&lt;/div&gt;&lt;div&gt;&lt;br&gt;&lt;/div&gt;&lt;div&gt;Diagrama de flujo 1&lt;/div&gt;&lt;p&gt;&lt;br&gt;&lt;/p&gt;" style="text;html=1;whiteSpace=wrap;overflow=hidden;rounded=0;align=center;" parent="WIyWlLk6GJQsqaUBKTNV-1" vertex="1">
          <mxGeometry x="490" y="30" width="250" height="195" as="geometry" />
        </mxCell>
        <mxCell id="zwyI8tlbRfQAhwyagGd9-61" value="" style="edgeStyle=orthogonalEdgeStyle;rounded=0;orthogonalLoop=1;jettySize=auto;html=1;" parent="WIyWlLk6GJQsqaUBKTNV-1" source="zwyI8tlbRfQAhwyagGd9-41" target="zwyI8tlbRfQAhwyagGd9-44" edge="1">
          <mxGeometry relative="1" as="geometry" />
        </mxCell>
        <mxCell id="zwyI8tlbRfQAhwyagGd9-41" value="Cargar&amp;nbsp; la guia de envio al rosal" style="rounded=0;whiteSpace=wrap;html=1;" parent="WIyWlLk6GJQsqaUBKTNV-1" vertex="1">
          <mxGeometry x="705" y="831" width="120" height="40" as="geometry" />
        </mxCell>
        <mxCell id="zwyI8tlbRfQAhwyagGd9-89" value="" style="edgeStyle=orthogonalEdgeStyle;rounded=0;orthogonalLoop=1;jettySize=auto;html=1;" parent="WIyWlLk6GJQsqaUBKTNV-1" source="zwyI8tlbRfQAhwyagGd9-44" target="_QNUhopDg3Hf3t6jgUZH-133" edge="1">
          <mxGeometry relative="1" as="geometry" />
        </mxCell>
        <mxCell id="zwyI8tlbRfQAhwyagGd9-44" value="lo recibe el rosal" style="rounded=0;whiteSpace=wrap;html=1;" parent="WIyWlLk6GJQsqaUBKTNV-1" vertex="1">
          <mxGeometry x="717.5" y="921" width="120" height="40" as="geometry" />
        </mxCell>
        <mxCell id="zwyI8tlbRfQAhwyagGd9-110" value="" style="edgeStyle=orthogonalEdgeStyle;rounded=0;orthogonalLoop=1;jettySize=auto;html=1;" parent="WIyWlLk6GJQsqaUBKTNV-1" source="zwyI8tlbRfQAhwyagGd9-107" target="zwyI8tlbRfQAhwyagGd9-109" edge="1">
          <mxGeometry relative="1" as="geometry" />
        </mxCell>
        <mxCell id="zwyI8tlbRfQAhwyagGd9-107" value="Informar al cliente del presupuesto&amp;nbsp;" style="whiteSpace=wrap;html=1;" parent="WIyWlLk6GJQsqaUBKTNV-1" vertex="1">
          <mxGeometry x="405" y="1391" width="120" height="46" as="geometry" />
        </mxCell>
        <mxCell id="zwyI8tlbRfQAhwyagGd9-113" value="" style="edgeStyle=orthogonalEdgeStyle;rounded=0;orthogonalLoop=1;jettySize=auto;html=1;" parent="WIyWlLk6GJQsqaUBKTNV-1" source="zwyI8tlbRfQAhwyagGd9-109" target="zwyI8tlbRfQAhwyagGd9-112" edge="1">
          <mxGeometry relative="1" as="geometry" />
        </mxCell>
        <mxCell id="zwyI8tlbRfQAhwyagGd9-114" value="NO" style="edgeLabel;html=1;align=center;verticalAlign=middle;resizable=0;points=[];" parent="zwyI8tlbRfQAhwyagGd9-113" vertex="1" connectable="0">
          <mxGeometry x="0.1571" y="-5" relative="1" as="geometry">
            <mxPoint as="offset" />
          </mxGeometry>
        </mxCell>
        <mxCell id="zwyI8tlbRfQAhwyagGd9-119" value="" style="edgeStyle=orthogonalEdgeStyle;rounded=0;orthogonalLoop=1;jettySize=auto;html=1;" parent="WIyWlLk6GJQsqaUBKTNV-1" source="zwyI8tlbRfQAhwyagGd9-109" target="zwyI8tlbRfQAhwyagGd9-118" edge="1">
          <mxGeometry relative="1" as="geometry" />
        </mxCell>
        <mxCell id="zwyI8tlbRfQAhwyagGd9-192" value="SI" style="edgeLabel;html=1;align=center;verticalAlign=middle;resizable=0;points=[];" parent="zwyI8tlbRfQAhwyagGd9-119" vertex="1" connectable="0">
          <mxGeometry x="-0.4514" y="4" relative="1" as="geometry">
            <mxPoint y="1" as="offset" />
          </mxGeometry>
        </mxCell>
        <mxCell id="zwyI8tlbRfQAhwyagGd9-109" value="Cliente pago?" style="rhombus;whiteSpace=wrap;html=1;" parent="WIyWlLk6GJQsqaUBKTNV-1" vertex="1">
          <mxGeometry x="425" y="1271" width="80" height="80" as="geometry" />
        </mxCell>
        <mxCell id="zwyI8tlbRfQAhwyagGd9-115" value="" style="edgeStyle=orthogonalEdgeStyle;rounded=0;orthogonalLoop=1;jettySize=auto;html=1;" parent="WIyWlLk6GJQsqaUBKTNV-1" source="zwyI8tlbRfQAhwyagGd9-112" target="_QNUhopDg3Hf3t6jgUZH-124" edge="1">
          <mxGeometry relative="1" as="geometry" />
        </mxCell>
        <mxCell id="zwyI8tlbRfQAhwyagGd9-112" value="Pendiente por Gestion Comercial" style="whiteSpace=wrap;html=1;" parent="WIyWlLk6GJQsqaUBKTNV-1" vertex="1">
          <mxGeometry x="555" y="1285" width="120" height="50" as="geometry" />
        </mxCell>
        <mxCell id="zwyI8tlbRfQAhwyagGd9-121" value="" style="edgeStyle=orthogonalEdgeStyle;rounded=0;orthogonalLoop=1;jettySize=auto;html=1;" parent="WIyWlLk6GJQsqaUBKTNV-1" source="zwyI8tlbRfQAhwyagGd9-118" target="zwyI8tlbRfQAhwyagGd9-120" edge="1">
          <mxGeometry relative="1" as="geometry" />
        </mxCell>
        <mxCell id="zwyI8tlbRfQAhwyagGd9-118" value="Cargue nota Profit" style="whiteSpace=wrap;html=1;" parent="WIyWlLk6GJQsqaUBKTNV-1" vertex="1">
          <mxGeometry x="405" y="1181" width="120" height="40" as="geometry" />
        </mxCell>
        <mxCell id="zwyI8tlbRfQAhwyagGd9-136" value="" style="edgeStyle=orthogonalEdgeStyle;rounded=0;orthogonalLoop=1;jettySize=auto;html=1;" parent="WIyWlLk6GJQsqaUBKTNV-1" source="zwyI8tlbRfQAhwyagGd9-120" target="zwyI8tlbRfQAhwyagGd9-124" edge="1">
          <mxGeometry relative="1" as="geometry" />
        </mxCell>
        <mxCell id="zwyI8tlbRfQAhwyagGd9-193" value="SI" style="edgeLabel;html=1;align=center;verticalAlign=middle;resizable=0;points=[];" parent="zwyI8tlbRfQAhwyagGd9-136" vertex="1" connectable="0">
          <mxGeometry x="-0.4071" relative="1" as="geometry">
            <mxPoint as="offset" />
          </mxGeometry>
        </mxCell>
        <mxCell id="zwyI8tlbRfQAhwyagGd9-141" value="" style="edgeStyle=orthogonalEdgeStyle;rounded=0;orthogonalLoop=1;jettySize=auto;html=1;" parent="WIyWlLk6GJQsqaUBKTNV-1" source="zwyI8tlbRfQAhwyagGd9-120" target="zwyI8tlbRfQAhwyagGd9-140" edge="1">
          <mxGeometry relative="1" as="geometry" />
        </mxCell>
        <mxCell id="zwyI8tlbRfQAhwyagGd9-142" value="NO" style="edgeLabel;html=1;align=center;verticalAlign=middle;resizable=0;points=[];" parent="zwyI8tlbRfQAhwyagGd9-141" vertex="1" connectable="0">
          <mxGeometry x="-0.2524" y="2" relative="1" as="geometry">
            <mxPoint as="offset" />
          </mxGeometry>
        </mxCell>
        <mxCell id="zwyI8tlbRfQAhwyagGd9-120" value="Es&amp;nbsp; regional?" style="rhombus;whiteSpace=wrap;html=1;" parent="WIyWlLk6GJQsqaUBKTNV-1" vertex="1">
          <mxGeometry x="305" y="1029.13" width="80" height="80" as="geometry" />
        </mxCell>
        <mxCell id="zwyI8tlbRfQAhwyagGd9-137" value="" style="edgeStyle=orthogonalEdgeStyle;rounded=0;orthogonalLoop=1;jettySize=auto;html=1;" parent="WIyWlLk6GJQsqaUBKTNV-1" source="zwyI8tlbRfQAhwyagGd9-124" target="zwyI8tlbRfQAhwyagGd9-125" edge="1">
          <mxGeometry relative="1" as="geometry" />
        </mxCell>
        <mxCell id="zwyI8tlbRfQAhwyagGd9-124" value="Carga la guia de envio al estado origen del dispotitivo" style="rounded=0;whiteSpace=wrap;html=1;" parent="WIyWlLk6GJQsqaUBKTNV-1" vertex="1">
          <mxGeometry x="425" y="1044.13" width="120" height="50" as="geometry" />
        </mxCell>
        <mxCell id="zwyI8tlbRfQAhwyagGd9-138" value="" style="edgeStyle=orthogonalEdgeStyle;rounded=0;orthogonalLoop=1;jettySize=auto;html=1;" parent="WIyWlLk6GJQsqaUBKTNV-1" source="zwyI8tlbRfQAhwyagGd9-125" target="zwyI8tlbRfQAhwyagGd9-135" edge="1">
          <mxGeometry relative="1" as="geometry" />
        </mxCell>
        <mxCell id="zwyI8tlbRfQAhwyagGd9-125" value="Verificar recepcion del equipo al estado procedente" style="whiteSpace=wrap;html=1;rounded=0;" parent="WIyWlLk6GJQsqaUBKTNV-1" vertex="1">
          <mxGeometry x="575" y="1048.5" width="120" height="41.25" as="geometry" />
        </mxCell>
        <mxCell id="zwyI8tlbRfQAhwyagGd9-139" value="" style="edgeStyle=orthogonalEdgeStyle;rounded=0;orthogonalLoop=1;jettySize=auto;html=1;" parent="WIyWlLk6GJQsqaUBKTNV-1" source="zwyI8tlbRfQAhwyagGd9-135" target="_QNUhopDg3Hf3t6jgUZH-124" edge="1">
          <mxGeometry relative="1" as="geometry" />
        </mxCell>
        <mxCell id="zwyI8tlbRfQAhwyagGd9-135" value="Entregar a Cliente" style="whiteSpace=wrap;html=1;" parent="WIyWlLk6GJQsqaUBKTNV-1" vertex="1">
          <mxGeometry x="735" y="1044.13" width="92.5" height="50" as="geometry" />
        </mxCell>
        <mxCell id="zwyI8tlbRfQAhwyagGd9-144" value="" style="edgeStyle=orthogonalEdgeStyle;rounded=0;orthogonalLoop=1;jettySize=auto;html=1;entryX=0.5;entryY=0;entryDx=0;entryDy=0;" parent="WIyWlLk6GJQsqaUBKTNV-1" source="zwyI8tlbRfQAhwyagGd9-140" target="c0zV2AM7hL4q2DCEaIti-7" edge="1">
          <mxGeometry relative="1" as="geometry">
            <mxPoint x="184" y="1166" as="targetPoint" />
          </mxGeometry>
        </mxCell>
        <mxCell id="zwyI8tlbRfQAhwyagGd9-140" value="Entregar a cliente" style="whiteSpace=wrap;html=1;" parent="WIyWlLk6GJQsqaUBKTNV-1" vertex="1">
          <mxGeometry x="113.5" y="1038.19" width="141" height="61.87" as="geometry" />
        </mxCell>
        <mxCell id="zwyI8tlbRfQAhwyagGd9-155" value="" style="edgeStyle=orthogonalEdgeStyle;rounded=0;orthogonalLoop=1;jettySize=auto;html=1;" parent="WIyWlLk6GJQsqaUBKTNV-1" source="zwyI8tlbRfQAhwyagGd9-147" target="HQB4Sq_2YrO74d-TBcbG-68" edge="1">
          <mxGeometry relative="1" as="geometry" />
        </mxCell>
        <mxCell id="zwyI8tlbRfQAhwyagGd9-147" value="Carga la guia de envio al estado origen del dispotitivo" style="rounded=0;whiteSpace=wrap;html=1;" parent="WIyWlLk6GJQsqaUBKTNV-1" vertex="1">
          <mxGeometry x="1095" y="531" width="130" height="50" as="geometry" />
        </mxCell>
        <mxCell id="zwyI8tlbRfQAhwyagGd9-154" value="" style="edgeStyle=orthogonalEdgeStyle;rounded=0;orthogonalLoop=1;jettySize=auto;html=1;" parent="WIyWlLk6GJQsqaUBKTNV-1" source="zwyI8tlbRfQAhwyagGd9-148" target="zwyI8tlbRfQAhwyagGd9-147" edge="1">
          <mxGeometry relative="1" as="geometry" />
        </mxCell>
        <mxCell id="zwyI8tlbRfQAhwyagGd9-157" value="" style="edgeStyle=orthogonalEdgeStyle;rounded=0;orthogonalLoop=1;jettySize=auto;html=1;" parent="WIyWlLk6GJQsqaUBKTNV-1" source="zwyI8tlbRfQAhwyagGd9-148" target="zwyI8tlbRfQAhwyagGd9-147" edge="1">
          <mxGeometry relative="1" as="geometry" />
        </mxCell>
        <mxCell id="zwyI8tlbRfQAhwyagGd9-159" value="SI" style="edgeLabel;html=1;align=center;verticalAlign=middle;resizable=0;points=[];" parent="zwyI8tlbRfQAhwyagGd9-157" vertex="1" connectable="0">
          <mxGeometry x="-0.1714" y="-3" relative="1" as="geometry">
            <mxPoint y="1" as="offset" />
          </mxGeometry>
        </mxCell>
        <mxCell id="c0zV2AM7hL4q2DCEaIti-5" style="edgeStyle=orthogonalEdgeStyle;rounded=0;orthogonalLoop=1;jettySize=auto;html=1;exitX=0;exitY=0.5;exitDx=0;exitDy=0;entryX=0;entryY=0.5;entryDx=0;entryDy=0;" parent="WIyWlLk6GJQsqaUBKTNV-1" source="zwyI8tlbRfQAhwyagGd9-148" target="HQB4Sq_2YrO74d-TBcbG-18" edge="1">
          <mxGeometry relative="1" as="geometry" />
        </mxCell>
        <mxCell id="zwyI8tlbRfQAhwyagGd9-148" value="El cliente es regional?" style="rhombus;whiteSpace=wrap;html=1;rounded=0;" parent="WIyWlLk6GJQsqaUBKTNV-1" vertex="1">
          <mxGeometry x="1110" y="631" width="100" height="80" as="geometry" />
        </mxCell>
        <mxCell id="zwyI8tlbRfQAhwyagGd9-169" value="" style="edgeStyle=orthogonalEdgeStyle;rounded=0;orthogonalLoop=1;jettySize=auto;html=1;" parent="WIyWlLk6GJQsqaUBKTNV-1" source="zwyI8tlbRfQAhwyagGd9-167" target="zwyI8tlbRfQAhwyagGd9-107" edge="1">
          <mxGeometry relative="1" as="geometry" />
        </mxCell>
        <mxCell id="zwyI8tlbRfQAhwyagGd9-170" value="SI" style="edgeLabel;html=1;align=center;verticalAlign=middle;resizable=0;points=[];" parent="zwyI8tlbRfQAhwyagGd9-169" vertex="1" connectable="0">
          <mxGeometry x="-0.321" y="-3" relative="1" as="geometry">
            <mxPoint as="offset" />
          </mxGeometry>
        </mxCell>
        <mxCell id="zwyI8tlbRfQAhwyagGd9-171" style="edgeStyle=orthogonalEdgeStyle;rounded=0;orthogonalLoop=1;jettySize=auto;html=1;entryX=0;entryY=1;entryDx=0;entryDy=0;" parent="WIyWlLk6GJQsqaUBKTNV-1" source="zwyI8tlbRfQAhwyagGd9-167" target="zwyI8tlbRfQAhwyagGd9-120" edge="1">
          <mxGeometry relative="1" as="geometry" />
        </mxCell>
        <mxCell id="zwyI8tlbRfQAhwyagGd9-172" value="NO" style="edgeLabel;html=1;align=center;verticalAlign=middle;resizable=0;points=[];" parent="zwyI8tlbRfQAhwyagGd9-171" vertex="1" connectable="0">
          <mxGeometry x="-0.9065" y="-1" relative="1" as="geometry">
            <mxPoint as="offset" />
          </mxGeometry>
        </mxCell>
        <mxCell id="zwyI8tlbRfQAhwyagGd9-167" value="tuvo un presopuesto adicional la reparacion?" style="rhombus;whiteSpace=wrap;html=1;" parent="WIyWlLk6GJQsqaUBKTNV-1" vertex="1">
          <mxGeometry x="415" y="1481" width="100" height="99.69" as="geometry" />
        </mxCell>
        <mxCell id="zwyI8tlbRfQAhwyagGd9-201" style="edgeStyle=orthogonalEdgeStyle;rounded=0;orthogonalLoop=1;jettySize=auto;html=1;exitX=0;exitY=0.5;exitDx=0;exitDy=0;" parent="WIyWlLk6GJQsqaUBKTNV-1" source="zwyI8tlbRfQAhwyagGd9-198" target="zwyI8tlbRfQAhwyagGd9-112" edge="1">
          <mxGeometry relative="1" as="geometry" />
        </mxCell>
        <mxCell id="zwyI8tlbRfQAhwyagGd9-202" value="NO" style="edgeLabel;html=1;align=center;verticalAlign=middle;resizable=0;points=[];" parent="zwyI8tlbRfQAhwyagGd9-201" vertex="1" connectable="0">
          <mxGeometry x="-0.0908" y="4" relative="1" as="geometry">
            <mxPoint x="47" y="-3" as="offset" />
          </mxGeometry>
        </mxCell>
        <mxCell id="zwyI8tlbRfQAhwyagGd9-203" style="edgeStyle=orthogonalEdgeStyle;rounded=0;orthogonalLoop=1;jettySize=auto;html=1;exitX=0.5;exitY=1;exitDx=0;exitDy=0;entryX=0.5;entryY=0;entryDx=0;entryDy=0;" parent="WIyWlLk6GJQsqaUBKTNV-1" source="zwyI8tlbRfQAhwyagGd9-198" target="HQB4Sq_2YrO74d-TBcbG-44" edge="1">
          <mxGeometry relative="1" as="geometry" />
        </mxCell>
        <mxCell id="zwyI8tlbRfQAhwyagGd9-204" value="SI" style="edgeLabel;html=1;align=center;verticalAlign=middle;resizable=0;points=[];" parent="zwyI8tlbRfQAhwyagGd9-203" vertex="1" connectable="0">
          <mxGeometry x="-0.1187" relative="1" as="geometry">
            <mxPoint as="offset" />
          </mxGeometry>
        </mxCell>
        <mxCell id="zwyI8tlbRfQAhwyagGd9-198" value="Hay respuesto del equipo?" style="rhombus;whiteSpace=wrap;html=1;" parent="WIyWlLk6GJQsqaUBKTNV-1" vertex="1">
          <mxGeometry x="825" y="1270" width="80" height="80" as="geometry" />
        </mxCell>
        <mxCell id="zwyI8tlbRfQAhwyagGd9-225" style="edgeStyle=orthogonalEdgeStyle;rounded=0;orthogonalLoop=1;jettySize=auto;html=1;exitX=1;exitY=0.5;exitDx=0;exitDy=0;entryX=0.5;entryY=0;entryDx=0;entryDy=0;" parent="WIyWlLk6GJQsqaUBKTNV-1" source="zwyI8tlbRfQAhwyagGd9-214" target="_QNUhopDg3Hf3t6jgUZH-119" edge="1">
          <mxGeometry relative="1" as="geometry" />
        </mxCell>
        <mxCell id="zwyI8tlbRfQAhwyagGd9-226" value="SI" style="edgeLabel;html=1;align=center;verticalAlign=middle;resizable=0;points=[];" parent="zwyI8tlbRfQAhwyagGd9-225" vertex="1" connectable="0">
          <mxGeometry x="-0.0538" y="-1" relative="1" as="geometry">
            <mxPoint x="-1" as="offset" />
          </mxGeometry>
        </mxCell>
        <mxCell id="zwyI8tlbRfQAhwyagGd9-214" value="Verificar Estatus domiciliacion" style="rounded=0;whiteSpace=wrap;html=1;" parent="WIyWlLk6GJQsqaUBKTNV-1" vertex="1">
          <mxGeometry x="590" y="626" width="96" height="40" as="geometry" />
        </mxCell>
        <mxCell id="c0zV2AM7hL4q2DCEaIti-4" style="edgeStyle=orthogonalEdgeStyle;rounded=0;orthogonalLoop=1;jettySize=auto;html=1;exitX=0.5;exitY=0;exitDx=0;exitDy=0;entryX=0.5;entryY=1;entryDx=0;entryDy=0;" parent="WIyWlLk6GJQsqaUBKTNV-1" source="c0zV2AM7hL4q2DCEaIti-0" target="HQB4Sq_2YrO74d-TBcbG-18" edge="1">
          <mxGeometry relative="1" as="geometry" />
        </mxCell>
        <mxCell id="c0zV2AM7hL4q2DCEaIti-0" value="POS sin falla" style="whiteSpace=wrap;html=1;" parent="WIyWlLk6GJQsqaUBKTNV-1" vertex="1">
          <mxGeometry x="1100" y="366" width="120" height="50" as="geometry" />
        </mxCell>
        <mxCell id="c0zV2AM7hL4q2DCEaIti-6" value="&lt;font style=&quot;font-size: 24px;&quot;&gt;Cerrar Ticket&lt;/font&gt;" style="rounded=1;whiteSpace=wrap;html=1;strokeColor=none;" parent="WIyWlLk6GJQsqaUBKTNV-1" vertex="1">
          <mxGeometry x="1061.8700000000001" y="120.53999999999999" width="196.25" height="90.46" as="geometry" />
        </mxCell>
        <mxCell id="c0zV2AM7hL4q2DCEaIti-7" value="&lt;font style=&quot;font-size: 24px;&quot;&gt;Cerrar Ticket&lt;/font&gt;" style="rounded=1;whiteSpace=wrap;html=1;strokeColor=none;" parent="WIyWlLk6GJQsqaUBKTNV-1" vertex="1">
          <mxGeometry x="85.88" y="1181" width="196.25" height="90.46" as="geometry" />
        </mxCell>
        <mxCell id="c0zV2AM7hL4q2DCEaIti-9" style="edgeStyle=orthogonalEdgeStyle;rounded=0;orthogonalLoop=1;jettySize=auto;html=1;exitX=1;exitY=0.5;exitDx=0;exitDy=0;entryX=0;entryY=0.5;entryDx=0;entryDy=0;" parent="WIyWlLk6GJQsqaUBKTNV-1" source="c0zV2AM7hL4q2DCEaIti-8" target="_QNUhopDg3Hf3t6jgUZH-4" edge="1">
          <mxGeometry relative="1" as="geometry" />
        </mxCell>
        <mxCell id="c0zV2AM7hL4q2DCEaIti-10" value="&lt;font style=&quot;font-size: 12px;&quot;&gt;Se comunica con&lt;/font&gt;" style="edgeLabel;html=1;align=center;verticalAlign=middle;resizable=0;points=[];" parent="c0zV2AM7hL4q2DCEaIti-9" vertex="1" connectable="0">
          <mxGeometry x="-0.3647" y="-1" relative="1" as="geometry">
            <mxPoint x="1" y="-39" as="offset" />
          </mxGeometry>
        </mxCell>
        <mxCell id="c0zV2AM7hL4q2DCEaIti-8" value="&lt;span style=&quot;font-size: 24px;&quot;&gt;Cliente&lt;/span&gt;" style="rounded=1;whiteSpace=wrap;html=1;strokeColor=none;" parent="WIyWlLk6GJQsqaUBKTNV-1" vertex="1">
          <mxGeometry x="35.75" y="65.30999999999995" width="196.25" height="90.46" as="geometry" />
        </mxCell>
        <mxCell id="rR9O2mA9o4_ctk0LI53O-4" style="edgeStyle=orthogonalEdgeStyle;rounded=0;orthogonalLoop=1;jettySize=auto;html=1;exitX=0.5;exitY=1;exitDx=0;exitDy=0;" parent="WIyWlLk6GJQsqaUBKTNV-1" source="rR9O2mA9o4_ctk0LI53O-1" target="HQB4Sq_2YrO74d-TBcbG-5" edge="1">
          <mxGeometry relative="1" as="geometry" />
        </mxCell>
        <mxCell id="rR9O2mA9o4_ctk0LI53O-5" value="NO" style="edgeLabel;html=1;align=center;verticalAlign=middle;resizable=0;points=[];" parent="rR9O2mA9o4_ctk0LI53O-4" vertex="1" connectable="0">
          <mxGeometry x="-0.4403" y="4" relative="1" as="geometry">
            <mxPoint x="-4" y="6" as="offset" />
          </mxGeometry>
        </mxCell>
        <mxCell id="rR9O2mA9o4_ctk0LI53O-1" value="el POS es sunmi o techpo" style="rhombus;whiteSpace=wrap;html=1;" parent="WIyWlLk6GJQsqaUBKTNV-1" vertex="1">
          <mxGeometry x="1175" y="980" width="80" height="80" as="geometry" />
        </mxCell>
        <mxCell id="rR9O2mA9o4_ctk0LI53O-10" style="edgeStyle=orthogonalEdgeStyle;rounded=0;orthogonalLoop=1;jettySize=auto;html=1;exitX=0.5;exitY=1;exitDx=0;exitDy=0;entryX=0.5;entryY=0;entryDx=0;entryDy=0;" parent="WIyWlLk6GJQsqaUBKTNV-1" source="rR9O2mA9o4_ctk0LI53O-9" target="rR9O2mA9o4_ctk0LI53O-11" edge="1">
          <mxGeometry relative="1" as="geometry">
            <mxPoint x="1350" y="1220" as="targetPoint" />
          </mxGeometry>
        </mxCell>
        <mxCell id="rR9O2mA9o4_ctk0LI53O-9" value="Enviar a taller tercero" style="whiteSpace=wrap;html=1;rounded=0;" parent="WIyWlLk6GJQsqaUBKTNV-1" vertex="1">
          <mxGeometry x="1290" y="1109.13" width="120" height="40" as="geometry" />
        </mxCell>
        <mxCell id="rR9O2mA9o4_ctk0LI53O-12" style="edgeStyle=orthogonalEdgeStyle;rounded=0;orthogonalLoop=1;jettySize=auto;html=1;exitX=0.5;exitY=1;exitDx=0;exitDy=0;entryX=1;entryY=0.5;entryDx=0;entryDy=0;" parent="WIyWlLk6GJQsqaUBKTNV-1" source="rR9O2mA9o4_ctk0LI53O-11" target="HQB4Sq_2YrO74d-TBcbG-35" edge="1">
          <mxGeometry relative="1" as="geometry" />
        </mxCell>
        <mxCell id="rR9O2mA9o4_ctk0LI53O-11" value="Recibe El rosal" style="whiteSpace=wrap;html=1;rounded=0;" parent="WIyWlLk6GJQsqaUBKTNV-1" vertex="1">
          <mxGeometry x="1290" y="1216" width="120" height="40" as="geometry" />
        </mxCell>
      </root>
    </mxGraphModel>
  </diagram>
</mxfile>
